<svg xmlns="http://www.w3.org/2000/svg" viewBox="0 0 1024 1024" width="1024" height="1024">
  <defs>
    <!-- background vignette (center reads slightly bluer/lighter) -->
    <radialGradient id="bg" cx="0.5" cy="0.5" r="0.72">
      <stop offset="0" stop-color="#10141f"/>
      <stop offset="1" stop-color="#0e1119"/>
    </radialGradient>
    <!-- left chevron: outer indigo → apex blue (horizontal — both tips equally indigo) -->
    <linearGradient id="chevL" x1="0" y1="0.5" x2="1" y2="0.5">
      <stop offset="0" stop-color="#5b2af9"/>
      <stop offset="1" stop-color="#2f68fc"/>
    </linearGradient>
    <!-- right chevron: apex blue → outer cyan (defined in mirrored local space: x0 = tips) -->
    <linearGradient id="chevR" x1="0" y1="0.5" x2="1" y2="0.5">
      <stop offset="0" stop-color="#00d2ef"/>
      <stop offset="1" stop-color="#08a6fa"/>
    </linearGradient>
    <!-- core: magenta-violet holds the upper-left, cyan the lower-right -->
    <linearGradient id="core" x1="0" y1="0.15" x2="1" y2="0.85">
      <stop offset="0" stop-color="#b04ffb"/>
      <stop offset="0.65" stop-color="#4f8bfc"/>
      <stop offset="1" stop-color="#0cd6fd"/>
    </linearGradient>
    <!-- motion lines fade away from the core -->
    <linearGradient id="dashL" x1="356" y1="0" x2="424" y2="0" gradientUnits="userSpaceOnUse">
      <stop offset="0" stop-color="#7c4df5" stop-opacity="0.15"/>
      <stop offset="1" stop-color="#7c4df5" stop-opacity="0.8"/>
    </linearGradient>
    <linearGradient id="dashR" x1="600" y1="0" x2="668" y2="0" gradientUnits="userSpaceOnUse">
      <stop offset="0" stop-color="#0db0f5" stop-opacity="0.8"/>
      <stop offset="1" stop-color="#0db0f5" stop-opacity="0.15"/>
    </linearGradient>
    <!-- soft ambient glow behind the core -->
    <radialGradient id="glow" cx="0.5" cy="0.5" r="0.5">
      <stop offset="0" stop-color="#4cc3f7" stop-opacity="0.26"/>
      <stop offset="0.5" stop-color="#4cc3f7" stop-opacity="0.10"/>
      <stop offset="1" stop-color="#4cc3f7" stop-opacity="0"/>
    </radialGradient>
    <!-- tight glow: blurred copy of the core -->
    <filter id="blur" x="-60%" y="-60%" width="220%" height="220%">
      <feGaussianBlur stdDeviation="16"/>
    </filter>
  </defs>

  <!-- rounded-square card -->
  <rect x="0" y="0" width="1024" height="1024" rx="208" fill="url(#bg)"/>

  <!-- ambient glow -->
  <circle cx="512" cy="512" r="215" fill="url(#glow)"/>

  <!-- chevrons pressing inward: 90° opening, 60px bars.
       Filled outline, not a stroked polyline: tips are flat 45° cuts with r15
       corners (not pill caps), outer elbow r30, inner elbow r18. -->
  <defs>
    <path id="chevron" d="M239.0 370.6
      L359.2 490.8 A30 30 0 0 1 359.2 533.2
      L239.0 653.4 A15 15 0 0 1 217.8 653.4
      L196.6 632.2 A15 15 0 0 1 196.6 611.0
      L282.9 524.7 A18 18 0 0 0 282.9 499.3
      L196.6 413.0 A15 15 0 0 1 196.6 391.8
      L217.8 370.6 A15 15 0 0 1 239.0 370.6 Z"/>
  </defs>
  <use href="#chevron" fill="url(#chevL)"/>
  <use href="#chevron" fill="url(#chevR)" transform="matrix(-1 0 0 1 1024 0)"/>

  <!-- motion lines (staggered, fading away from the core) -->
  <g stroke-linecap="round" stroke-width="11" fill="none">
    <g stroke="url(#dashL)">
      <line x1="372" y1="475" x2="422" y2="475" opacity="0.75"/>
      <line x1="358" y1="512" x2="422" y2="512"/>
      <line x1="372" y1="549" x2="422" y2="549" opacity="0.75"/>
    </g>
    <g stroke="url(#dashR)">
      <line x1="602" y1="475" x2="652" y2="475" opacity="0.75"/>
      <line x1="602" y1="512" x2="666" y2="512"/>
      <line x1="602" y1="549" x2="652" y2="549" opacity="0.75"/>
    </g>
  </g>

  <!-- tight core glow -->
  <rect x="438" y="438" width="148" height="148" rx="44" fill="url(#core)"
    filter="url(#blur)" opacity="0.7"/>
  <!-- core: 148px (raster measure minus glow bleed), 30% corner radius -->
  <rect x="438" y="438" width="148" height="148" rx="44" fill="url(#core)"/>

  <!-- four-point sparkle (~46px) -->
  <path fill="#ffffff" d="M512 489
    Q516.5 507.5 535 512 Q516.5 516.5 512 535
    Q507.5 516.5 489 512 Q507.5 507.5 512 489 Z"/>
</svg>
